<svg width="120" height="64" viewBox="0 0 120 64" fill="none" xmlns="http://www.w3.org/2000/svg">
<path d="M25.3585 30.4427C25.9478 29.7506 26.5573 29.1094 27.1873 28.5191C27.8171 27.9288 28.447 27.4198 29.0769 26.9924C29.7068 26.5649 30.3266 26.2392 30.9362 26.0153C31.566 25.771 32.1655 25.6489 32.7344 25.6489C33.1814 25.6489 33.6183 25.7303 34.045 25.8931C34.492 26.0356 34.8883 26.2697 35.2337 26.5954C35.5791 26.9008 35.8534 27.2977 36.0566 27.7863C36.2598 28.2748 36.3614 28.855 36.3614 29.5267C36.3614 30.5038 36.2293 31.4707 35.9652 32.4275C35.701 33.3639 35.3657 34.2799 34.9594 35.1756C34.553 36.0712 34.1161 36.9364 33.6488 37.771C33.2018 38.6056 32.7751 39.4097 32.3687 40.1832C31.9623 40.9364 31.627 41.659 31.3629 42.3512C31.0987 43.0229 30.9666 43.6437 30.9666 44.2137C30.9666 44.6616 31.0784 44.9873 31.3019 45.1908C31.5457 45.374 31.7997 45.4657 32.0639 45.4657C32.5922 45.4657 33.2119 45.1603 33.9231 44.5496C34.6546 43.9389 35.4165 43.1552 36.209 42.1985C37.0015 41.2417 37.7939 40.1934 38.5864 39.0534C39.3991 37.8931 40.1713 36.7634 40.9028 35.6641L42 36.5191C41.7358 36.9466 41.3904 37.5166 40.9637 38.229C40.5573 38.9211 40.0798 39.6743 39.5312 40.4885C38.9826 41.2824 38.3832 42.0967 37.733 42.9313C37.0827 43.7455 36.3919 44.4886 35.6604 45.1603C34.9492 45.8117 34.2076 46.3511 33.4354 46.7786C32.6633 47.1858 31.8911 47.3893 31.119 47.3893C30.6923 47.3893 30.2758 47.3282 29.8694 47.2061C29.4833 47.084 29.1379 46.8906 28.8331 46.6259C28.5283 46.341 28.2845 45.9745 28.1016 45.5267C27.9187 45.0789 27.8273 44.5293 27.8273 43.8779C27.8273 42.9822 27.9797 42.1069 28.2845 41.2519C28.5893 40.397 28.9754 39.5522 29.4427 38.7176C29.91 37.8829 30.4078 37.0585 30.9362 36.2443C31.4848 35.4097 31.9928 34.5853 32.4601 33.771C32.9274 32.9568 33.3135 32.1425 33.6183 31.3283C33.9231 30.4936 34.0755 29.6489 34.0755 28.7939C34.0755 28.3664 33.9942 28.0305 33.8317 27.7863C33.6691 27.5216 33.3643 27.3893 32.9173 27.3893C32.2061 27.3893 31.4543 27.6845 30.6618 28.2748C29.8694 28.8448 29.0464 29.6183 28.1931 30.5954C27.3396 31.5725 26.4659 32.7125 25.5719 34.0153C24.6778 35.2977 23.7838 36.6616 22.8897 38.1068C22.016 39.5318 21.1422 40.9873 20.2685 42.4733C19.4151 43.9389 18.5922 45.3537 17.7997 46.7176L15.2395 45.374C16.3164 43.1552 17.3222 41.1705 18.2569 39.4199C19.2119 37.6692 20.045 36.0916 20.7562 34.687C21.4673 33.2621 22.0261 31.9695 22.4325 30.8092C22.8389 29.6285 23.0421 28.5191 23.0421 27.4809C23.0421 27.2774 23.0218 27.0738 22.9811 26.8702C22.9405 26.6463 22.8592 26.4529 22.7373 26.2901C22.6154 26.1272 22.4528 25.9949 22.2496 25.8931C22.0667 25.771 21.823 25.7099 21.5181 25.7099C20.8273 25.7099 20.1263 26.0356 19.4151 26.687C18.7039 27.3181 17.9521 28.1934 17.1596 29.313C16.3672 30.4122 15.5138 31.7048 14.5994 33.1908C13.7054 34.6565 12.7301 36.2138 11.6734 37.8626C10.6372 39.5114 9.50944 41.2112 8.29028 42.9618C7.07112 44.6921 5.74021 46.3715 4.29753 48L2.19449 46.5954C2.8447 45.6183 3.5254 44.5903 4.23658 43.5115C4.96805 42.4122 5.67926 41.3028 6.3701 40.1832C7.08126 39.0636 7.75181 37.9542 8.3817 36.8549C9.03192 35.7354 9.60086 34.6768 10.0885 33.6794C10.5762 32.6819 10.9623 31.7659 11.2467 30.9313C11.5312 30.0967 11.6734 29.3842 11.6734 28.7939C11.6734 28.1018 11.5007 27.6031 11.1553 27.2977C10.8099 26.9924 10.3628 26.8397 9.81422 26.8397C9.164 26.8397 8.52397 27.0738 7.89404 27.542C7.28448 28.0102 6.63426 28.6718 5.94338 29.5267C5.27288 30.3817 4.54138 31.4097 3.74891 32.6107C2.97678 33.7913 2.09289 35.0941 1.09724 36.5191L0 35.6641C1.07692 33.9542 2.04209 32.4478 2.8955 31.145C3.76923 29.8422 4.59219 28.7532 5.3643 27.8779C6.13641 27.0025 6.89842 26.341 7.6502 25.8931C8.42236 25.4453 9.25546 25.2214 10.1495 25.2214C10.4136 25.2214 10.7489 25.2723 11.1553 25.374C11.582 25.4758 11.9986 25.659 12.4049 25.9237C12.8113 26.1883 13.1669 26.5547 13.4717 27.0229C13.7968 27.4911 13.9898 28.0916 14.0508 28.8244C15.1887 27.3588 16.3773 26.1883 17.6168 25.313C18.8563 24.4377 20.0247 24 21.1219 24C21.9144 24 22.5849 24.1628 23.1335 24.4885C23.6821 24.7939 24.119 25.201 24.4441 25.7099C24.7896 26.2188 25.0334 26.799 25.1756 27.4504C25.3382 28.0814 25.4194 28.7227 25.4194 29.3741C25.4194 29.5369 25.4093 29.7099 25.389 29.8931C25.389 30.0763 25.3788 30.2595 25.3585 30.4427Z" fill="#731054"/>
<rect x="58" y="28" width="33" height="20" rx="4" fill="#F8CDD9"/>
<path d="M63.0568 42V33.2727H66.0057C66.6903 33.2727 67.25 33.3963 67.6847 33.6435C68.1222 33.8878 68.446 34.2188 68.6562 34.6364C68.8665 35.054 68.9716 35.5199 68.9716 36.0341C68.9716 36.5483 68.8665 37.0156 68.6562 37.4361C68.4489 37.8565 68.1278 38.1918 67.6932 38.4418C67.2585 38.6889 66.7017 38.8125 66.0227 38.8125H63.9091V37.875H65.9886C66.4574 37.875 66.8338 37.794 67.1179 37.6321C67.402 37.4702 67.608 37.2514 67.7358 36.9759C67.8665 36.6974 67.9318 36.3835 67.9318 36.0341C67.9318 35.6847 67.8665 35.3722 67.7358 35.0966C67.608 34.821 67.4006 34.6051 67.1136 34.4489C66.8267 34.2898 66.446 34.2102 65.9716 34.2102H64.1136V42H63.0568ZM70.674 42V33.2727H73.6229C74.3047 33.2727 74.8643 33.3892 75.3018 33.6222C75.7393 33.8523 76.0632 34.169 76.2734 34.5724C76.4837 34.9759 76.5888 35.4347 76.5888 35.9489C76.5888 36.4631 76.4837 36.919 76.2734 37.3168C76.0632 37.7145 75.7408 38.027 75.3061 38.2543C74.8714 38.4787 74.3161 38.5909 73.6399 38.5909H71.2536V37.6364H73.6058C74.0717 37.6364 74.4467 37.5682 74.7308 37.4318C75.0178 37.2955 75.2251 37.1023 75.353 36.8523C75.4837 36.5994 75.549 36.2983 75.549 35.9489C75.549 35.5994 75.4837 35.294 75.353 35.0327C75.2223 34.7713 75.0135 34.5696 74.7266 34.4276C74.4396 34.2827 74.0604 34.2102 73.5888 34.2102H71.7308V42H70.674ZM74.782 38.0795L76.9297 42H75.7024L73.5888 38.0795H74.782ZM85.7134 37.6364C85.7134 38.5568 85.5472 39.3523 85.2148 40.0227C84.8825 40.6932 84.4265 41.2102 83.8469 41.5739C83.2674 41.9375 82.6055 42.1193 81.8612 42.1193C81.1168 42.1193 80.4549 41.9375 79.8754 41.5739C79.2958 41.2102 78.8398 40.6932 78.5075 40.0227C78.1751 39.3523 78.0089 38.5568 78.0089 37.6364C78.0089 36.7159 78.1751 35.9205 78.5075 35.25C78.8398 34.5795 79.2958 34.0625 79.8754 33.6989C80.4549 33.3352 81.1168 33.1534 81.8612 33.1534C82.6055 33.1534 83.2674 33.3352 83.8469 33.6989C84.4265 34.0625 84.8825 34.5795 85.2148 35.25C85.5472 35.9205 85.7134 36.7159 85.7134 37.6364ZM84.6907 37.6364C84.6907 36.8807 84.5643 36.2429 84.3114 35.723C84.0614 35.2031 83.7219 34.8097 83.293 34.5426C82.8668 34.2756 82.3896 34.142 81.8612 34.142C81.3327 34.142 80.854 34.2756 80.4251 34.5426C79.9989 34.8097 79.6594 35.2031 79.4066 35.723C79.1566 36.2429 79.0316 36.8807 79.0316 37.6364C79.0316 38.392 79.1566 39.0298 79.4066 39.5497C79.6594 40.0696 79.9989 40.4631 80.4251 40.7301C80.854 40.9972 81.3327 41.1307 81.8612 41.1307C82.3896 41.1307 82.8668 40.9972 83.293 40.7301C83.7219 40.4631 84.0614 40.0696 84.3114 39.5497C84.5643 39.0298 84.6907 38.392 84.6907 37.6364Z" fill="#040404"/>
</svg>
